<svg width="120" height="120" viewBox="0 0 120 120" fill="none" xmlns="http://www.w3.org/2000/svg">
  <defs>
    <linearGradient id="brandGradient" x1="0" y1="0" x2="1" y2="1">
      <stop offset="0%" stop-color="#E63946"/>
      <stop offset="100%" stop-color="#2563EB"/>
    </linearGradient>
  </defs>
  <rect x="8" y="8" width="104" height="104" rx="28" fill="url(#brandGradient)"/>
  <path d="M58 28C48 28 42 38 42 57C42 76 50 84 58 84C66 84 74 76 74 57C74 48 70 42 64 38C62 36 60 34 58 34C56 34 55 34 53 34C52 34 50 34 48 34C48 34 48 37 48 39C48 43 48 49 48 54C48 64 52 68 58 68C64 68 68 64 68 54C68 50 67 46 66 44C65 42 64 40 62 38C60 36 59 35 58 35C57 35 57 35 56 35C54 35 52 36 51 37C50 38 50 40 50 42V49C50 55 52 60 56 64C60 68 64 70 68 70C72 70 75 68 77 64C79 60 80 55 80 49C80 43 80 38 79 34C78 29 74 28 68 28H58Z" fill="white"/>
</svg>
